<svg width="25" height="22" viewBox="0 0 25 22" fill="none" xmlns="http://www.w3.org/2000/svg">
<g clip-path="url(#clip0_65_101)">
<path d="M12.9367 9.62501L19.4445 11.926V21.3125C19.4445 21.4948 19.3713 21.6697 19.2411 21.7986C19.1108 21.9276 18.9342 22 18.75 22H15.9722C15.7881 22 15.6114 21.9276 15.4812 21.7986C15.351 21.6697 15.2778 21.4948 15.2778 21.3125V16.5H8.33336V21.3125C8.33336 21.4948 8.2602 21.6697 8.12996 21.7986C7.99973 21.9276 7.82309 22 7.63892 22H4.86114C4.67696 22 4.50033 21.9276 4.37009 21.7986C4.23986 21.6697 4.16669 21.4948 4.16669 21.3125V12.1211C2.55385 11.5517 1.38892 10.0401 1.38892 8.25001C1.38892 7.88533 1.53524 7.5356 1.79571 7.27774C2.05618 7.01987 2.40945 6.87501 2.7778 6.87501C3.14616 6.87501 3.49943 7.01987 3.7599 7.27774C4.02036 7.5356 4.16669 7.88533 4.16669 8.25001C4.16738 8.61447 4.31393 8.96381 4.57425 9.22153C4.83457 9.47924 5.18744 9.62433 5.55558 9.62501H12.9367ZM23.6111 4.81251V6.18751C23.6111 6.91685 23.3185 7.61633 22.7975 8.13205C22.2766 8.64778 21.5701 8.93751 20.8334 8.93751H19.4445V10.4663L13.8889 8.50223V2.06251C13.8889 1.4502 14.6363 1.14341 15.0742 1.57653L16.2583 2.75001H18.586C19.0595 2.75001 19.6168 3.09032 19.8282 3.51012L20.1389 4.12501H22.9167C23.1009 4.12501 23.2775 4.19744 23.4077 4.32637C23.538 4.4553 23.6111 4.63017 23.6111 4.81251ZM18.75 4.81251C18.75 4.67653 18.7093 4.54361 18.633 4.43055C18.5567 4.31749 18.4482 4.22938 18.3213 4.17734C18.1944 4.1253 18.0548 4.11169 17.9201 4.13822C17.7854 4.16474 17.6617 4.23022 17.5645 4.32637C17.4674 4.42252 17.4013 4.54502 17.3745 4.67838C17.3477 4.81174 17.3614 4.94998 17.414 5.0756C17.4666 5.20123 17.5556 5.3086 17.6698 5.38414C17.784 5.45969 17.9182 5.50001 18.0556 5.50001C18.2398 5.50001 18.4164 5.42757 18.5466 5.29864C18.6769 5.16971 18.75 4.99484 18.75 4.81251Z" fill="black"/>
</g>
<defs>
<clipPath id="clip0_65_101">
<rect width="25" height="22" rx="11" fill="white"/>
</clipPath>
</defs>
</svg>
