<svg width="25" height="25" viewBox="0 0 25 25" fill="none" xmlns="http://www.w3.org/2000/svg">
<path d="M8.33333 2C9.04688 2 9.70156 2.26667 10.1781 2.75938C10.6547 3.2526 10.9375 3.95677 10.9375 4.80625C10.9375 5.65156 10.6583 6.5 10.2031 7.14219C9.75 7.78125 9.09375 8.25 8.33333 8.25C7.57292 8.25 6.91667 7.78125 6.46354 7.14219C6.00833 6.5 5.72917 5.65156 5.72917 4.80677C5.72917 3.95677 6.01198 3.2526 6.48906 2.75938C6.9651 2.26667 7.61979 2 8.33333 2ZM2.60417 6.6875C3.31771 6.6875 3.9724 6.95417 4.44896 7.44688C4.92552 7.9401 5.20833 8.64427 5.20833 9.49375C5.20833 10.3391 4.92917 11.1875 4.47396 11.8297C4.02083 12.4687 3.36458 12.9375 2.60417 12.9375C1.84375 12.9375 1.1875 12.4687 0.734375 11.8297C0.279167 11.1875 0 10.3385 0 9.49427C0 8.64427 0.282813 7.9401 0.759896 7.44688C1.23594 6.95417 1.89062 6.6875 2.60417 6.6875ZM11.7188 10.3333C8.00833 10.3333 4.93437 13.4922 3.96667 17.4531C3.5375 19.2104 4.19219 21.0953 5.80677 21.9885C7.08958 22.699 9.00937 23.3542 11.7182 23.3542C14.4276 23.3542 16.3474 22.699 17.6307 21.9885C19.2448 21.0953 19.8995 19.2104 19.4703 17.4536C18.5031 13.4922 15.4286 10.3333 11.7188 10.3333ZM20.8333 6.6875C20.1198 6.6875 19.4651 6.95417 18.9891 7.44688C18.512 7.9401 18.2292 8.64427 18.2292 9.49375C18.2292 10.3391 18.5083 11.1875 18.9635 11.8297C19.4167 12.4687 20.0729 12.9375 20.8333 12.9375C21.5938 12.9375 22.25 12.4687 22.7031 11.8297C23.1583 11.1875 23.4375 10.3391 23.4375 9.49427C23.4375 8.64427 23.1547 7.9401 22.6781 7.44688C22.2016 6.95417 21.5469 6.6875 20.8333 6.6875ZM15.1042 2C14.3906 2 13.7359 2.26667 13.2599 2.75938C12.7828 3.2526 12.5 3.95677 12.5 4.80625C12.5 5.65156 12.7792 6.5 13.2344 7.14219C13.6875 7.78125 14.3437 8.25 15.1042 8.25C15.8646 8.25 16.5208 7.78125 16.974 7.14219C17.4292 6.5 17.7083 5.65156 17.7083 4.80677C17.7083 3.95677 17.4255 3.2526 16.949 2.75938C16.4724 2.26667 15.8177 2 15.1042 2Z" fill="black"/>
</svg>
