<svg width="17" height="23" viewBox="0 0 17 23" fill="none" xmlns="http://www.w3.org/2000/svg">
<path d="M5.41667 13.2604C5.22847 13.0593 4.96829 12.941 4.69304 12.9312C4.4178 12.9214 4.14989 13.0211 3.94792 13.2083C2.71632 14.2932 1.72793 15.6261 1.04756 17.1197C0.36719 18.6133 0.0102009 20.2338 0 21.875C0 22.1513 0.109747 22.4162 0.305097 22.6116C0.500448 22.8069 0.7654 22.9167 1.04167 22.9167C1.31793 22.9167 1.58289 22.8069 1.77824 22.6116C1.97359 22.4162 2.08333 22.1513 2.08333 21.875C2.09049 20.519 2.38688 19.1802 2.95272 17.9479C3.51856 16.7157 4.34082 15.6183 5.36458 14.7292C5.56567 14.541 5.68404 14.2808 5.6938 14.0055C5.70356 13.7303 5.60392 13.4624 5.41667 13.2604ZM16.0104 18.0938C15.6217 16.9713 15.0593 15.9168 14.3438 14.9687C12.8535 13.0376 12.8715 9.89309 14.3403 7.94555C15.6477 6.21216 16.6667 3.93399 16.6667 1.04167C16.6667 0.765399 16.5569 0.500447 16.3616 0.305097C16.1662 0.109747 15.9013 0 15.625 0C15.3487 0 15.0838 0.109747 14.8884 0.305097C14.6931 0.500447 14.5833 0.765399 14.5833 1.04167C14.5833 6.12946 10.6717 8.97597 8.83773 10.0282C8.5255 10.2074 8.14248 10.2038 7.83201 10.0216C7.81572 10.0121 7.79946 10.0025 7.78322 9.99286C6.93317 9.48941 7.34539 8.33333 8.33333 8.33333C8.6096 8.33333 8.87455 8.22359 9.0699 8.02824C9.26525 7.83289 9.375 7.56793 9.375 7.29167C9.375 7.0154 9.26525 6.75045 9.0699 6.5551C8.87455 6.35975 8.6096 6.25 8.33333 6.25H4.3395C3.93897 6.25 3.56053 6.05107 3.36245 5.70296C2.95463 4.98623 3.5248 4.16667 4.34943 4.16667H11.4583C11.7346 4.16667 11.9996 4.05692 12.1949 3.86157C12.3903 3.66622 12.5 3.40127 12.5 3.125C12.5 2.84873 12.3903 2.58378 12.1949 2.38843C11.9996 2.19308 11.7346 2.08333 11.4583 2.08333H3.19006C2.59377 2.08333 2.08171 1.63795 2.08333 1.04167C2.08333 0.765399 1.97359 0.500447 1.77824 0.305097C1.58289 0.109747 1.31793 0 1.04167 0C0.7654 0 0.500448 0.109747 0.305097 0.305097C0.109747 0.500447 0 0.765399 0 1.04167C0 8.92708 7.60417 12.2812 7.92708 12.4167C8.25211 12.5732 8.57041 12.7424 8.88128 12.9239C9.73822 13.4244 9.32569 14.5833 8.33333 14.5833C8.05707 14.5833 7.79211 14.6931 7.59676 14.8884C7.40141 15.0838 7.29167 15.3487 7.29167 15.625C7.29167 15.9013 7.40141 16.1662 7.59676 16.3616C7.79211 16.5569 8.05707 16.6667 8.33333 16.6667H12.3065C12.7072 16.6667 13.0864 16.8645 13.2854 17.2122C13.6961 17.93 13.1226 18.75 12.2957 18.75H5.20833C4.93207 18.75 4.66711 18.8597 4.47176 19.0551C4.27641 19.2504 4.16667 19.5154 4.16667 19.7917C4.16667 20.0679 4.27641 20.3329 4.47176 20.5282C4.66711 20.7236 4.93207 20.8333 5.20833 20.8333H13.4766C14.0729 20.8333 14.585 21.2787 14.5833 21.875C14.5833 22.1513 14.6931 22.4162 14.8884 22.6116C15.0838 22.8069 15.3487 22.9167 15.625 22.9167C15.9013 22.9167 16.1662 22.8069 16.3616 22.6116C16.5569 22.4162 16.6667 22.1513 16.6667 21.875C16.6704 21.1087 16.5936 20.344 16.4375 19.5937C16.337 19.0828 16.1942 18.581 16.0104 18.0938Z" fill="black"/>
</svg>
