<svg width="25" height="25" viewBox="0 0 25 25" fill="none" xmlns="http://www.w3.org/2000/svg">
<path d="M20.3125 1.95312H16.4063C16.0955 1.95312 15.7974 2.07659 15.5776 2.29636C15.3579 2.51613 15.2344 2.8142 15.2344 3.125C15.2344 3.4358 15.3579 3.73387 15.5776 3.95364C15.7974 4.17341 16.0955 4.29688 16.4063 4.29688H17.4805L15.9531 5.82715C15.1711 5.17725 14.2502 4.71564 13.2615 4.47791C12.2728 4.24018 11.2427 4.23268 10.2507 4.45598C9.25864 4.67929 8.33113 5.12744 7.53967 5.76588C6.74821 6.40432 6.11394 7.21599 5.68576 8.13831C5.25759 9.06064 5.04694 10.069 5.07008 11.0856C5.09321 12.1022 5.3495 13.0999 5.81919 14.0018C6.28887 14.9037 6.95941 15.6857 7.77909 16.2874C8.59878 16.8892 9.54571 17.2947 10.5469 17.4727V18.75H8.59376C8.28296 18.75 7.98489 18.8735 7.76512 19.0932C7.54535 19.313 7.42189 19.6111 7.42189 19.9219C7.42189 20.2327 7.54535 20.5307 7.76512 20.7505C7.98489 20.9703 8.28296 21.0938 8.59376 21.0938H10.5469V22.6562C10.5469 22.9671 10.6703 23.2651 10.8901 23.4849C11.1099 23.7047 11.408 23.8281 11.7188 23.8281C12.0296 23.8281 12.3276 23.7047 12.5474 23.4849C12.7672 23.2651 12.8906 22.9671 12.8906 22.6562V21.0938H14.8438C15.1546 21.0938 15.4526 20.9703 15.6724 20.7505C15.8922 20.5307 16.0156 20.2327 16.0156 19.9219C16.0156 19.6111 15.8922 19.313 15.6724 19.0932C15.4526 18.8735 15.1546 18.75 14.8438 18.75H12.8906V17.4727C13.9394 17.2856 14.9277 16.8487 15.772 16.1989C16.6162 15.5491 17.2915 14.7055 17.7408 13.7395C18.19 12.7735 18.4001 11.7136 18.353 10.6492C18.306 9.58494 18.0034 8.54761 17.4707 7.625L19.1406 5.95703V7.03125C19.1406 7.34205 19.2641 7.64012 19.4839 7.85989C19.7036 8.07966 20.0017 8.20312 20.3125 8.20312C20.6233 8.20312 20.9214 8.07966 21.1411 7.85989C21.3609 7.64012 21.4844 7.34205 21.4844 7.03125V3.125C21.4844 2.8142 21.3609 2.51613 21.1411 2.29636C20.9214 2.07659 20.6233 1.95312 20.3125 1.95312ZM11.7188 15.2344C10.8689 15.2344 10.0382 14.9824 9.33154 14.5102C8.62493 14.0381 8.07419 13.367 7.74897 12.5818C7.42375 11.7967 7.33865 10.9327 7.50445 10.0992C7.67024 9.26571 8.07948 8.50008 8.68041 7.89915C9.28134 7.29822 10.047 6.88898 10.8805 6.72319C11.714 6.55739 12.578 6.64249 13.3631 6.96771C14.1483 7.29293 14.8193 7.84367 15.2915 8.55028C15.7636 9.2569 16.0156 10.0877 16.0156 10.9375C16.0143 12.0767 15.5612 13.1689 14.7557 13.9744C13.9501 14.78 12.858 15.2331 11.7188 15.2344Z" fill="black"/>
</svg>
