<svg width="29" height="30" viewBox="0 0 29 30" fill="none" xmlns="http://www.w3.org/2000/svg">
<path d="M17.5 7.12793H17.515M11.5 25.5117H5.5C4.30653 25.5117 3.16193 25.0275 2.31802 24.1656C1.47411 23.3037 1 22.1347 1 20.9158V5.59595C1 4.37703 1.47411 3.20803 2.31802 2.34612C3.16193 1.48421 4.30653 1 5.5 1H20.5C21.6935 1 22.8381 1.48421 23.682 2.34612C24.5259 3.20803 25 4.37703 25 5.59595V11.7239" stroke="black" stroke-width="2" stroke-linecap="round" stroke-linejoin="round"/>
<path d="M1 17.8517L7 11.7238C8.392 10.3557 10.108 10.3557 11.5 11.7238L14.5 14.7878C15.3233 15.6286 16.6767 15.6286 17.5 14.7878C17.965 14.3312 18.466 14.0264 18.9805 13.8747M22.63 18.7862C22.9225 18.4875 23.2698 18.2505 23.652 18.0888C24.0342 17.9271 24.4438 17.8439 24.8575 17.8439C25.2712 17.8439 25.6808 17.9271 26.063 18.0888C26.4452 18.2505 26.7925 18.4875 27.085 18.7862C27.3775 19.085 27.6096 19.4397 27.7679 19.83C27.9262 20.2204 28.0077 20.6387 28.0077 21.0612C28.0077 21.4837 27.9262 21.9021 27.7679 22.2925C27.6096 22.6828 27.3775 23.0375 27.085 23.3362L22.9316 27.6157C22.3361 28.2293 21.5174 28.5756 20.6623 28.5756C18.9158 28.5756 17.5 27.1598 17.5 25.4133V25.3175C17.5 24.4603 17.8378 23.6377 18.4402 23.0279L22.63 18.7862Z" stroke="black" stroke-width="2" stroke-linecap="round" stroke-linejoin="round"/>
</svg>
