<svg width="25" height="25" viewBox="0 0 25 25" fill="none" xmlns="http://www.w3.org/2000/svg">
<path d="M3.37598 2.00195L2.00195 3.31299V21.6943L3.27734 22.998H21.6943L22.998 21.6943V3.30713L21.6943 2.00195H3.37598ZM12.0605 3.51904V5.46875H12.9395V3.51904C14.1748 3.53369 15.4053 3.6084 16.582 3.74512L15.9814 6.14258L16.8311 6.35742L17.4561 3.85986C18.7842 4.05371 20.0195 4.32959 21.0938 4.6875L18.75 10.1562C17.4756 9.83887 15.6787 9.64844 13.7939 9.58984C13.9941 9.8584 14.1113 10.1904 14.1113 10.5469C14.1113 11.4307 13.3838 12.1582 12.5 12.1582C11.6162 12.1582 10.8887 11.4307 10.8887 10.5469C10.8887 10.1904 11.0059 9.8584 11.2061 9.58984C9.31641 9.64844 7.52441 9.83887 6.25 10.1562L3.90625 4.6875C4.98047 4.32959 6.21582 4.05371 7.54395 3.85986L8.16895 6.35742L9.01855 6.14258L8.41797 3.74512C9.59473 3.6084 10.8252 3.53369 12.0605 3.51904ZM10.5615 4.51465L9.75098 4.86035L11.6113 9.2041C11.8604 9.04297 12.1484 8.94531 12.4609 8.93555L10.5615 4.51465ZM12.5 9.81445C12.0898 9.81445 11.7676 10.1367 11.7676 10.5469C11.7676 10.957 12.0898 11.2793 12.5 11.2793C12.9102 11.2793 13.2324 10.957 13.2324 10.5469C13.2324 10.1367 12.9102 9.81445 12.5 9.81445ZM6.25 17.5293H18.75V18.4082H6.25V17.5293ZM6.25 19.873H18.75V20.752H6.25V19.873Z" fill="black"/>
</svg>
